# xmcd CD database file
#
# Track frame offsets:
#	150
#	18139
#	38288
#	58212
#	80316
#	104563
#	126051
#	150188
#	165794
#	185581
#	205291
#	231055
#
# Disc length: 3296 seconds
#
# Revision: 0
# Processed by: cddbd v1.5.2PL0 Copyright (c) Steve Scherf et al.
# Submitted via: CDex 1.50beta8
#
DISCID=830cde0c
DTITLE=BONNIE JENSEN - LUCKY SO and SO
DYEAR=2003
DGENRE=Jazz
TTITLE0=All Of You
TTITLE1=Garota De Ipanema 
TTITLE2=I'm Just A Lucky So and So
TTITLE3=The Man I Love
TTITLE4=Reality
TTITLE5=Teach Me Tonight
TTITLE6=A Foggy Day
TTITLE7=No More Blues - Chega De Saudade
TTITLE8=Waltz For Debby
TTITLE9=Embraceable You
TTITLE10=The Best Thing In Your Life
TTITLE11=Time After Time
EXTD=YEAR: 2003
EXTT0=
EXTT1=
EXTT2=
EXTT3=
EXTT4=
EXTT5=
EXTT6=
EXTT7=
EXTT8=
EXTT9=
EXTT10=
EXTT11=
PLAYORDER=
